<?xml version="1.0" standalone="no"?>
<!DOCTYPE svg PUBLIC "-//W3C//DTD SVG 20010904//EN"
 "http://www.w3.org/TR/2001/REC-SVG-20010904/DTD/svg10.dtd">
<svg version="1.0" xmlns="http://www.w3.org/2000/svg"
 width="60.000000pt" height="60.000000pt" viewBox="0 0 60.000000 60.000000"
 preserveAspectRatio="xMidYMid meet">
<metadata>
Created by potrace 1.12, written by Peter Selinger 2001-2015
</metadata>
<g transform="translate(0.000000,60.000000) scale(0.100000,-0.100000)"
fill="#000000" stroke="none">
<path d="M194 574 c-54 -19 -118 -75 -152 -132 -24 -42 -27 -56 -27 -142 0
-85 3 -100 27 -141 33 -55 87 -105 142 -130 56 -26 176 -25 232 0 61 28 124
89 150 146 35 73 34 182 -2 253 -32 64 -100 125 -161 146 -57 20 -154 19 -209
0z m224 -30 c97 -48 152 -136 152 -244 0 -154 -116 -270 -270 -270 -154 0
-269 115 -270 271 0 109 61 203 164 250 63 28 159 25 224 -7z"/>
<path d="M288 371 l4 -50 -53 -3 c-40 -2 -54 -7 -54 -18 0 -11 14 -16 54 -18
l53 -3 -4 -50 c-4 -43 -3 -49 13 -49 16 0 19 8 19 49 l0 50 48 3 c34 2 47 7
47 18 0 11 -13 16 -47 18 l-48 3 0 50 c0 41 -3 49 -19 49 -16 0 -17 -6 -13
-49z"/>
</g>
</svg>
